<?xml version="1.0" encoding="UTF-8"?>
<svg id="Layer_1" xmlns="http://www.w3.org/2000/svg" viewBox="0 0 32.07 10.78">
  <defs>
    <style>
      .cls-1 {
        fill: #231f20;
        stroke: #fffaf0;
        stroke-miterlimit: 10;
        stroke-width: .2px;
      }
    </style>
  </defs>
  <path class="cls-1" d="M17.98,4.72c0-.14-.02-.24-.05-.29s-.1-.09-.2-.13c-.02,0-.04-.02-.08-.03-.21-.09-.32-.19-.32-.31,0-.07.04-.14.11-.21s.2-.13.37-.21l1.34-.59s.06-.02.1-.04c.09-.04.16-.06.21-.06.08,0,.13.03.17.09s.05.16.05.3v3.9c0,.15.02.27.06.36s.11.17.21.24c.04.03.09.06.15.1.2.12.29.25.29.39,0,.12-.04.22-.13.29s-.19.11-.33.11h-2.23c-.14,0-.25-.04-.33-.11s-.12-.17-.12-.29c0-.14.1-.28.29-.39.07-.04.12-.07.15-.1.1-.07.17-.14.21-.23s.06-.21.06-.36v-2.43ZM18.27,2.14c-.21,0-.37-.05-.49-.14s-.18-.22-.18-.38c0-.27.16-.52.47-.75.31-.23.66-.34,1.05-.34.18,0,.33.05.44.14.11.1.17.22.17.38,0,.28-.15.53-.45.75s-.64.33-1.02.33Z"/>
  <path class="cls-1" d="M20.13,8.41c-.29-.07-.51-.16-.66-.28s-.22-.26-.22-.42c0-.21.1-.42.29-.64s.48-.44.87-.66c-.3-.21-.52-.43-.65-.66s-.2-.5-.2-.81c0-.61.28-1.11.83-1.48s1.32-.58,2.29-.62c.19-.52.43-.9.72-1.16s.62-.39,1-.39c.29,0,.52.08.69.23s.25.35.25.61c0,.16-.06.3-.17.41s-.26.17-.42.17c-.09,0-.22-.02-.39-.07s-.28-.07-.35-.07c-.12,0-.23.03-.32.09s-.17.15-.24.27c.61.18,1.08.43,1.41.76s.49.71.49,1.14c0,.57-.28,1.04-.83,1.42s-1.26.57-2.12.57c-.25,0-.48-.01-.69-.03s-.39-.06-.56-.1c-.07.05-.13.1-.16.15s-.05.09-.05.14c0,.1.07.18.2.23s.4.1.8.13l1.42.13c.98.09,1.66.25,2.04.48s.57.59.57,1.07c0,.55-.28.97-.83,1.25s-1.39.42-2.49.42-1.91-.11-2.5-.33-.89-.53-.89-.92c0-.17.08-.34.23-.51s.38-.34.68-.51ZM21.07,8.68c-.11.11-.19.21-.24.31s-.08.2-.08.29c0,.19.15.33.46.42s.78.14,1.44.14c.54,0,.92-.04,1.15-.11s.35-.2.35-.37c0-.24-.55-.42-1.66-.53-.23-.02-.41-.04-.54-.05l-.87-.1ZM22.45,3.52c-.32,0-.57.12-.76.37s-.29.57-.29.98c0,.38.09.68.28.91s.43.35.74.35c.34,0,.59-.11.76-.32s.25-.54.25-.96-.09-.74-.26-.98-.42-.35-.72-.35Z"/>
  <path class="cls-1" d="M25.63,5.09c0-.17-.02-.29-.06-.35s-.11-.11-.23-.16c-.02,0-.05-.02-.09-.04-.23-.09-.35-.21-.35-.36,0-.09.05-.18.15-.27s.26-.2.46-.31l1.28-.7c.06-.04.11-.06.17-.08s.1-.03.14-.03c.07,0,.13.03.16.08s.05.16.06.32l.04.7c.27-.39.52-.66.74-.81s.49-.23.78-.23c.41,0,.77.16,1.06.48s.52.79.67,1.4l.33,1.33s.03.12.05.21c.2.81.38,1.29.53,1.43.04.04.1.09.18.15.18.12.26.24.26.37,0,.14-.05.24-.15.31s-.26.1-.49.1h-1.83c-.25,0-.42-.03-.52-.09s-.15-.16-.15-.31c0-.08.02-.15.05-.2s.1-.12.2-.19c.03-.02.08-.05.15-.09.18-.11.28-.22.28-.33,0-.14-.04-.39-.11-.73s-.17-.73-.29-1.17c-.16-.56-.3-.93-.44-1.12s-.31-.28-.53-.28c-.24,0-.43.1-.58.3s-.21.47-.21.81v1.93c0,.15.02.27.06.36s.12.17.22.25c.04.02.09.05.16.09.19.11.28.23.28.38,0,.12-.04.22-.13.29s-.19.11-.33.11h-2.23c-.14,0-.25-.04-.33-.11s-.12-.17-.12-.29c0-.15.1-.28.29-.38.07-.04.12-.07.16-.1.09-.07.16-.14.2-.23s.06-.21.06-.36v-2.06Z"/>
  <path class="cls-1" d="M12.71,7.41c-.08-.16-.14-.29-.18-.4s-.07-.18-.07-.23c0-.06.02-.11.06-.16s.09-.06.16-.06c.08,0,.24.1.49.3.2.16.37.29.5.39.22.16.48.29.79.39s.62.14.93.14.57-.05.76-.15.28-.23.28-.4c0-.25-.42-.52-1.25-.81-.1-.03-.17-.06-.23-.08-.93-.32-1.55-.62-1.85-.89s-.45-.62-.45-1.05.18-.81.54-1.1.82-.44,1.38-.44c.26,0,.56.04.88.11s.52.11.58.11c.1,0,.23-.06.38-.19s.26-.19.32-.19c.05,0,.09.02.13.05s.09.1.14.19l.73,1.21.04.06c.08.14.12.24.12.29,0,.08-.02.14-.06.19s-.1.06-.17.06c-.07,0-.19-.07-.38-.2-.09-.07-.16-.12-.22-.16-.41-.28-.75-.47-1.02-.57s-.55-.15-.83-.15c-.23,0-.41.04-.54.12s-.2.19-.2.32c0,.25.47.51,1.42.78.24.07.42.12.56.16.64.19,1.12.43,1.42.74s.46.68.46,1.12c0,.57-.2,1.02-.59,1.36s-.93.51-1.59.51c-.3,0-.62-.03-.97-.1s-.55-.1-.6-.1c-.19,0-.35.09-.46.27,0,.01-.02.03-.03.04-.12.18-.22.28-.3.28-.11,0-.26-.19-.46-.56-.01-.02-.02-.03-.02-.04l-.6-1.18Z"/>
  <path class="cls-1" d="M9.95,6.37c.13.44.34.77.62,1s.62.34,1.03.34c.19,0,.38-.03.56-.08s.36-.13.53-.23c.05-.04.13-.09.24-.16.29-.19.48-.29.57-.29.08,0,.15.03.2.08s.08.12.08.2c0,.09-.03.19-.1.3s-.17.22-.29.34c-.32.29-.69.51-1.11.67s-.86.24-1.3.24c-.93,0-1.7-.28-2.3-.85s-.9-1.28-.9-2.15c0-.41.08-.8.23-1.15s.38-.67.67-.95c.29-.27.61-.47.98-.62s.74-.22,1.12-.22c.48,0,.9.09,1.27.26s.69.43.98.79c.16.2.29.41.4.64s.16.4.16.52c0,.05-.02.09-.06.12s-.13.07-.29.13l-3.26,1.07ZM9.75,5.77l1.6-.56c.09-.03.16-.07.21-.12s.07-.1.08-.17c0-.32-.12-.61-.36-.88s-.51-.4-.82-.4c-.27,0-.48.11-.65.32s-.25.49-.25.83c0,.11.01.25.04.4s.08.35.15.59Z"/>
  <path class="cls-1" d="M15.18,8.69c-.35-.06-.55-.1-.6-.1-.19,0-.35.09-.46.27,0,.01-.02.03-.03.04-.12.18-.22.28-.3.28-.11,0-.26-.19-.46-.56-.01-.02-.02-.03-.02-.04l-.6-1.18c-.08-.16-.14-.29-.18-.4s-.07-.18-.07-.23c0-.06.02-.11.06-.16s.09-.06.16-.06c.08,0,.24.1.49.3.2.16.37.29.5.39.22.16.48.29.79.39s.62.14.93.14"/>
  <path class="cls-1" d="M.94,7.07V1.66c0-.15-.02-.27-.06-.35s-.11-.14-.21-.19c-.04-.02-.09-.04-.16-.07-.27-.11-.41-.25-.41-.44,0-.18.06-.3.17-.38s.3-.12.55-.12h1.68c.83,0,1.56.08,2.19.23s1.2.39,1.71.72c.77.49,1.36,1.08,1.77,1.76s.62,1.42.62,2.21c0,1.14-.41,2.03-1.24,2.66s-2,.95-3.51.95H.82c-.25,0-.43-.04-.55-.12s-.17-.21-.17-.38c0-.19.13-.34.4-.45.07-.03.13-.05.17-.07.1-.05.17-.11.21-.19s.06-.2.06-.35ZM3.06,6.76c0,.27.04.45.13.54s.25.14.49.14c.84,0,1.49-.25,1.95-.74s.69-1.18.69-2.07c0-.94-.24-1.72-.73-2.34s-1.08-.93-1.79-.93c-.27,0-.46.05-.57.16s-.17.28-.17.52v4.73Z"/>
</svg>