<?xml version="1.0" encoding="UTF-8"?>
<svg id="Layer_1" xmlns="http://www.w3.org/2000/svg" viewBox="0 0 51.71 9.09">
  <defs>
    <style>
      .cls-1 {
        fill: #231f20;
      }

      .cls-2 {
        fill: #fff;
      }
    </style>
  </defs>
  <g>
    <path class="cls-1" d="M43.28,9.04c1.05,0,1.88-.26,2.49-.78s.91-1.23.91-2.13c0-.41-.07-.79-.22-1.15s-.36-.68-.64-.96c-.3-.31-.63-.54-1-.69s-.78-.22-1.25-.22c-.42,0-.83.08-1.24.23s-.77.36-1.08.62c-.38.32-.66.69-.86,1.1s-.29.86-.29,1.34c0,.8.29,1.43.86,1.91s1.34.72,2.3.72ZM44.92,5.1c0,.28-.04.57-.11.87s-.19.6-.33.89c-.21.45-.44.77-.69.99s-.51.32-.81.32-.55-.12-.74-.35-.27-.54-.27-.94c0-.27.04-.57.13-.9s.22-.65.38-.98c.18-.35.41-.63.68-.84s.54-.32.81-.32c.29,0,.52.11.69.34s.26.53.26.91Z"/>
    <path class="cls-2" d="M43.28,9.14c-.98,0-1.78-.25-2.36-.74-.59-.5-.89-1.17-.89-1.99,0-.5.1-.96.3-1.39s.49-.81.88-1.14c.32-.27.69-.49,1.11-.64.42-.15.85-.23,1.27-.23.48,0,.91.08,1.29.23.38.15.73.39,1.03.71.29.29.51.62.66.99.15.37.22.77.22,1.19,0,.92-.32,1.67-.94,2.2-.62.53-1.48.8-2.56.8ZM43.58,3.21c-.4,0-.81.07-1.2.22s-.75.35-1.04.61c-.37.31-.65.67-.83,1.07-.18.4-.28.83-.28,1.3,0,.76.28,1.38.82,1.84.55.46,1.3.7,2.24.7,1.03,0,1.84-.25,2.43-.76.58-.5.87-1.19.87-2.05,0-.39-.07-.77-.21-1.11-.14-.34-.35-.66-.62-.93-.29-.3-.61-.53-.96-.67-.35-.14-.76-.22-1.21-.22ZM42.97,8.27c-.34,0-.61-.13-.81-.38-.19-.25-.29-.58-.29-1,0-.28.05-.59.14-.92.09-.33.22-.67.39-1,.19-.36.43-.66.71-.88.29-.22.58-.34.87-.34.32,0,.58.13.77.38.18.24.28.57.28.97,0,.28-.04.58-.12.89-.08.31-.19.62-.34.91-.22.46-.46.8-.71,1.02-.26.23-.56.34-.88.34ZM43.97,3.95c-.24,0-.49.1-.74.3-.26.2-.48.47-.66.81-.16.32-.29.64-.38.96-.09.31-.13.61-.13.87,0,.37.08.66.25.88.16.21.38.31.66.31s.52-.1.75-.29c.23-.2.46-.52.66-.96.14-.29.25-.58.32-.88.07-.29.11-.58.11-.85,0-.36-.08-.64-.24-.85-.15-.2-.35-.3-.61-.3Z"/>
  </g>
  <g>
    <path class="cls-1" d="M36.1,9.04c-1.05,0-1.88-.26-2.49-.78s-.91-1.23-.91-2.13c0-.41.07-.79.22-1.15s.36-.68.64-.96c.3-.31.63-.54,1-.69s.78-.22,1.25-.22c.42,0,.83.08,1.24.23s.77.36,1.08.62c.38.32.66.69.86,1.1s.29.86.29,1.34c0,.8-.29,1.43-.86,1.91s-1.34.72-2.3.72ZM34.47,5.1c0,.28.04.57.11.87s.19.6.33.89c.21.45.44.77.69.99s.51.32.81.32.55-.12.74-.35.27-.54.27-.94c0-.27-.04-.57-.13-.9s-.22-.65-.38-.98c-.18-.35-.41-.63-.68-.84s-.54-.32-.81-.32c-.29,0-.52.11-.69.34s-.26.53-.26.91Z"/>
    <path class="cls-2" d="M36.1,9.14c-1.07,0-1.93-.27-2.56-.8-.63-.54-.94-1.28-.94-2.2,0-.42.08-.82.22-1.19.15-.37.37-.71.66-.99.3-.32.65-.56,1.03-.71.38-.15.81-.23,1.29-.23.43,0,.86.08,1.27.23.42.15.79.37,1.11.64.39.33.68.71.88,1.14s.3.89.3,1.39c0,.82-.3,1.49-.89,1.99-.59.49-1.38.74-2.36.74ZM35.8,3.21c-.45,0-.86.07-1.21.22-.35.14-.68.37-.96.67-.27.27-.48.58-.62.93-.14.35-.21.72-.21,1.11,0,.86.29,1.55.87,2.05.58.5,1.4.76,2.43.76.93,0,1.68-.23,2.24-.7.55-.46.82-1.07.82-1.84,0-.47-.09-.91-.28-1.3-.18-.4-.46-.76-.83-1.07-.3-.26-.65-.46-1.04-.61s-.8-.22-1.2-.22ZM36.41,8.27c-.32,0-.62-.12-.88-.34-.25-.22-.49-.56-.71-1.02-.15-.3-.26-.6-.34-.91-.08-.31-.12-.61-.12-.89,0-.4.09-.73.28-.97.19-.25.45-.38.77-.38.29,0,.58.11.87.34.28.22.52.51.71.88.17.33.3.67.39,1,.09.33.14.64.14.92,0,.42-.1.75-.29,1-.2.25-.47.38-.81.38ZM35.42,3.95c-.26,0-.46.1-.61.3-.16.21-.24.49-.24.85,0,.27.04.55.11.85.07.29.18.59.32.87.21.43.43.75.66.96.23.2.47.29.75.29s.49-.1.66-.31c.17-.21.25-.51.25-.88,0-.26-.04-.56-.13-.87-.09-.32-.21-.64-.38-.96-.18-.34-.4-.61-.66-.81-.25-.2-.5-.3-.74-.3Z"/>
  </g>
  <g>
    <path class="cls-1" d="M38.92,2.54c0-.15-.02-.26-.05-.31s-.11-.11-.23-.15l-.04-.02c-.25-.09-.37-.21-.37-.36,0-.07.04-.15.11-.23s.19-.17.37-.27l1.38-.85c.05-.04.1-.06.16-.08s.11-.03.15-.03c.09,0,.15.03.18.08s.05.14.05.28v6.84c0,.15.02.27.06.36s.11.17.21.24c.04.03.09.06.15.1.2.12.29.25.29.39,0,.12-.04.22-.12.29s-.19.11-.33.11h-2.24c-.14,0-.25-.04-.33-.11s-.13-.17-.13-.29c0-.14.1-.28.29-.39.07-.04.12-.07.15-.1.1-.07.17-.15.21-.24s.06-.21.06-.36V2.54Z"/>
    <path class="cls-2" d="M40.9,9.03h-2.24c-.16,0-.29-.04-.4-.13-.11-.09-.16-.21-.16-.37,0-.18.12-.34.34-.48.08-.05.12-.07.14-.09.1-.07.16-.13.19-.21.03-.08.05-.18.05-.32V2.54c0-.18-.02-.24-.04-.26,0-.02-.05-.06-.18-.11l-.04-.02c-.28-.11-.42-.26-.42-.45,0-.1.05-.2.14-.29.08-.08.21-.18.39-.28l1.38-.85c.05-.04.11-.07.18-.09.07-.02.13-.04.19-.04.15,0,.23.07.26.12.05.07.07.17.07.33v6.84c0,.13.02.24.05.31.04.07.1.14.18.2.04.03.08.06.14.09.23.14.34.3.34.48,0,.15-.05.27-.16.37-.1.09-.23.13-.4.13ZM40.41.35s-.08,0-.12.02c-.05.02-.09.04-.13.07l-1.39.85c-.16.1-.28.18-.35.25-.05.06-.08.11-.08.16,0,.12.17.21.3.26l.04.02c.13.05.22.12.27.19.04.07.06.19.06.36v4.9c0,.16-.02.29-.07.4-.05.11-.13.2-.25.28-.03.03-.08.06-.16.11-.16.09-.24.2-.24.3,0,.09.03.16.09.21.07.06.15.08.27.08h2.24c.12,0,.2-.03.27-.08.06-.05.09-.12.09-.21,0-.11-.08-.21-.24-.31-.07-.04-.12-.08-.16-.11-.11-.08-.19-.17-.24-.28-.05-.1-.07-.24-.07-.4V.6c0-.15-.02-.21-.03-.22-.01-.02-.05-.03-.1-.03Z"/>
  </g>
  <g>
    <path class="cls-1" d="M47.31,8.62l-1.48-3.57c-.11-.27-.21-.47-.28-.59s-.14-.21-.2-.25c-.04-.03-.1-.06-.18-.1-.23-.12-.34-.27-.34-.44,0-.13.05-.23.15-.3s.24-.11.43-.11h1.96c.19,0,.33.03.43.1s.14.17.14.31-.09.26-.26.36-.26.21-.26.32c0,.04,0,.09.03.16s.04.15.07.22l.91,2.4,1-2.58c.02-.07.04-.13.05-.16s.01-.06.01-.08c0-.09-.09-.19-.28-.31s-.28-.25-.28-.39c0-.12.04-.21.11-.27s.18-.09.33-.09h1.63c.16,0,.28.03.36.09s.12.15.12.27c0,.16-.09.29-.28.4-.02,0-.03.02-.04.02,0,0-.02,0-.03.02-.23.14-.39.32-.47.53l-1.62,4.03c-.05.13-.1.21-.14.24s-.1.04-.18.04h-1.13c-.07,0-.13-.01-.17-.04s-.08-.11-.13-.23Z"/>
    <path class="cls-2" d="M48.74,8.99h-1.13c-.1,0-.17-.02-.23-.07-.05-.04-.1-.12-.16-.27l-1.48-3.57c-.11-.26-.2-.46-.27-.58-.08-.14-.14-.19-.17-.21-.04-.03-.1-.06-.17-.1-.26-.14-.39-.32-.39-.53,0-.16.06-.3.19-.39.12-.08.28-.12.49-.12h1.96c.22,0,.37.04.49.12.12.09.18.22.18.39s-.1.32-.31.45c-.1.06-.21.15-.21.24,0,.02,0,.05.02.14.02.07.04.14.06.21l.82,2.16.9-2.34c.02-.07.04-.12.04-.14,0-.02,0-.04,0-.05,0-.01-.01-.09-.23-.23-.21-.14-.32-.29-.32-.47,0-.15.05-.26.15-.35.09-.08.23-.12.39-.12h1.63c.18,0,.32.04.42.11.11.08.16.2.16.35,0,.19-.11.36-.32.48-.02,0-.03.01-.04.02l-.03.02c-.21.13-.35.29-.43.48l-1.62,4.03c-.08.2-.13.26-.17.28-.05.04-.13.05-.24.05ZM45.42,3.35c-.17,0-.3.03-.38.09-.07.05-.1.12-.1.22,0,.13.09.25.29.35.08.04.14.07.18.1.08.05.15.14.24.28.07.13.17.33.28.61l1.48,3.58c.06.16.1.19.1.19.01,0,.04.02.1.02h1.13c.09,0,.12-.02.13-.02,0,0,.04-.03.1-.19l1.62-4.03c.09-.23.26-.42.51-.58.01,0,.03-.02.04-.02,0,0,.02-.01.04-.02.15-.09.22-.19.22-.31,0-.09-.03-.15-.08-.19-.06-.05-.16-.07-.3-.07h-1.63c-.12,0-.2.02-.26.07-.05.04-.08.11-.08.19,0,.1.08.21.23.3.22.14.32.27.32.39,0,.03,0,.07-.02.1,0,.03-.02.08-.05.16l-1.09,2.83-1.01-2.65c-.03-.08-.05-.16-.07-.23-.02-.08-.03-.14-.03-.18,0-.15.1-.28.31-.41.14-.09.21-.18.21-.28s-.03-.18-.1-.23c-.08-.06-.2-.08-.37-.08h-1.96Z"/>
  </g>
  <g>
    <path class="cls-1" d="M4.38,8.89c-.19,0-.33-.11-.42-.32,0-.02-.01-.03-.02-.04L1.65,2.75c-.18-.45-.33-.78-.44-.98s-.21-.32-.3-.38c-.06-.04-.14-.08-.25-.13-.31-.15-.46-.33-.46-.53,0-.11.04-.2.12-.27s.2-.1.35-.1h2.96c.16,0,.28.04.38.13s.15.2.15.33c0,.11-.03.2-.08.26s-.15.13-.29.2c-.13.05-.22.11-.26.16s-.06.11-.06.19c0,.06.03.15.08.27.02.04.03.06.04.08l1.87,4.64,1.78-4.25c.08-.18.14-.36.18-.53s.07-.29.07-.36c0-.07-.1-.16-.3-.29s-.3-.27-.3-.45c0-.12.04-.22.13-.28s.21-.1.39-.1h2.13c.17,0,.3.04.39.11s.14.18.14.32c0,.2-.13.36-.39.47-.09.04-.15.07-.19.09-.09.05-.19.17-.29.34s-.23.43-.36.77l-2.48,6.05c-.06.14-.12.24-.18.29s-.15.08-.25.08h-1.52Z"/>
    <path class="cls-2" d="M5.9,8.99h-1.52c-.16,0-.38-.07-.51-.38l-.02-.04L1.56,2.78c-.18-.45-.33-.77-.43-.97-.12-.23-.21-.31-.26-.34-.06-.04-.14-.08-.24-.13C.28,1.18.11.97.11.73c0-.14.05-.26.16-.35.1-.08.24-.12.41-.12h2.96c.18,0,.33.05.45.15.12.11.18.24.18.4,0,.13-.03.24-.1.32-.06.08-.17.15-.33.23-.16.07-.21.11-.23.13-.03.03-.04.07-.04.12,0,.03.01.1.07.23.02.04.03.06.04.08l1.78,4.41,1.68-4.02c.08-.18.14-.35.18-.52.05-.2.06-.29.06-.33h0s-.03-.06-.26-.2c-.23-.14-.35-.32-.35-.53,0-.16.06-.28.17-.36.1-.08.25-.12.45-.12h2.13c.19,0,.34.05.46.14.12.1.18.23.18.4,0,.25-.15.43-.45.56-.08.04-.14.07-.18.09-.05.03-.14.1-.25.31-.1.17-.22.43-.36.76l-2.48,6.05c-.07.16-.13.26-.21.33-.08.07-.19.1-.32.1ZM4.03,8.49s.01.03.02.05c.09.23.23.26.32.26h1.52c.08,0,.14-.02.19-.06.03-.03.09-.1.15-.25l2.48-6.05c.14-.34.26-.6.37-.78.12-.2.22-.32.33-.38.05-.03.11-.06.2-.1.22-.09.33-.22.33-.38,0-.11-.03-.18-.1-.24-.08-.06-.19-.09-.33-.09h-2.13c-.15,0-.26.03-.33.08-.06.05-.09.11-.09.2,0,.14.08.25.26.36.25.15.35.26.35.37,0,.08-.02.21-.07.39-.05.17-.11.36-.19.54l-1.87,4.47-1.96-4.87s-.02-.04-.03-.08c-.06-.13-.08-.23-.08-.31,0-.1.03-.19.09-.26.05-.06.15-.12.3-.18.16-.07.22-.13.25-.17.04-.05.05-.11.05-.2,0-.1-.04-.19-.11-.25-.08-.07-.18-.1-.31-.1H.68c-.12,0-.22.03-.28.08-.06.05-.09.11-.09.19,0,.16.14.31.41.44.11.05.19.1.25.13.11.06.21.2.33.41.11.2.26.53.44.99l2.29,5.78Z"/>
  </g>
  <g>
    <path class="cls-1" d="M8.63,2.5c0-.15-.02-.26-.05-.31s-.11-.11-.23-.15l-.04-.02c-.25-.09-.37-.21-.37-.36,0-.07.04-.15.11-.23s.19-.17.37-.27l1.38-.85c.05-.04.1-.06.16-.08s.11-.03.15-.03c.09,0,.15.03.18.08s.05.14.05.28v6.84c0,.15.02.27.06.36s.11.17.21.24c.04.03.09.06.15.1.2.12.29.25.29.39,0,.12-.04.22-.12.29s-.19.11-.33.11h-2.24c-.14,0-.25-.04-.33-.11s-.13-.17-.13-.29c0-.14.1-.28.29-.39.07-.04.12-.07.15-.1.1-.07.17-.15.21-.24s.06-.21.06-.36V2.5Z"/>
    <path class="cls-2" d="M10.61,8.99h-2.24c-.16,0-.29-.04-.4-.13-.11-.09-.16-.21-.16-.37,0-.18.12-.34.34-.48.08-.05.12-.07.14-.09.1-.07.16-.13.19-.21.03-.08.05-.18.05-.32V2.51c0-.18-.02-.24-.04-.26,0-.02-.05-.06-.18-.11l-.04-.02c-.28-.11-.42-.26-.42-.45,0-.1.05-.2.14-.29.08-.08.21-.18.39-.28l1.38-.85c.05-.04.11-.07.18-.09.07-.02.13-.04.19-.04.15,0,.23.07.26.12.05.07.07.17.07.33v6.84c0,.13.02.24.05.31.04.07.1.14.18.2.04.03.08.06.14.09.23.14.34.3.34.48,0,.15-.05.27-.16.37-.1.09-.23.13-.4.13ZM10.11.31s-.08,0-.12.02c-.05.02-.09.04-.13.07l-1.39.85c-.16.1-.28.18-.35.25-.05.06-.08.11-.08.16,0,.12.17.21.3.26l.04.02c.13.05.22.12.27.19.04.07.06.19.06.36v4.9c0,.16-.02.29-.07.4-.05.11-.13.2-.25.28-.03.03-.08.06-.16.11-.16.09-.24.2-.24.3,0,.09.03.16.09.21.07.06.15.08.27.08h2.24c.12,0,.2-.03.27-.08.06-.05.09-.12.09-.21,0-.11-.08-.21-.24-.31-.07-.04-.12-.08-.16-.11-.11-.08-.19-.17-.24-.28-.05-.1-.07-.24-.07-.4V.57c0-.15-.02-.21-.03-.22-.01-.02-.05-.03-.1-.03Z"/>
  </g>
  <g>
    <path class="cls-1" d="M19.56,2.29c0-.14-.02-.24-.05-.31s-.09-.11-.17-.15c-.02,0-.05-.02-.09-.04-.23-.09-.34-.2-.34-.34,0-.07.04-.14.13-.22s.23-.17.42-.28l1.27-.66c.07-.04.13-.06.18-.08s.09-.02.13-.02c.07,0,.13.03.16.08s.05.14.05.27v6.72c0,.2.02.33.05.42s.1.16.21.23c.04.02.08.05.14.09.2.12.29.25.29.39,0,.08-.03.15-.08.21s-.13.1-.23.13c-.29.09-.6.16-.93.21s-.58.08-.76.08c-.16,0-.27-.05-.33-.15s-.09-.33-.1-.69c-.31.27-.61.46-.92.59s-.61.19-.93.19c-.71,0-1.29-.25-1.75-.76s-.68-1.15-.68-1.94c0-.34.05-.66.15-.98s.24-.61.44-.89c.29-.41.64-.73,1.05-.96s.83-.34,1.28-.34c.26,0,.5.04.73.11s.45.18.68.34v-1.28ZM16.95,5.57c0,.59.16,1.1.47,1.51s.69.62,1.13.62c.34,0,.6-.14.79-.42s.29-.67.29-1.16c0-.74-.11-1.3-.32-1.66s-.54-.55-.97-.55c-.4,0-.73.16-.99.47s-.39.71-.39,1.2Z"/>
    <path class="cls-2" d="M19.95,9.14c-.2,0-.34-.07-.41-.2-.04-.06-.08-.19-.1-.53-.26.21-.53.37-.79.48-.31.13-.64.2-.97.2-.74,0-1.35-.27-1.82-.79-.47-.52-.71-1.2-.71-2,0-.34.05-.68.15-1,.1-.32.25-.63.45-.92.3-.42.66-.76,1.08-.99.42-.23.86-.35,1.33-.35.27,0,.52.04.76.11.18.06.37.14.55.25v-1.1c0-.16-.02-.23-.04-.26-.02-.04-.06-.08-.12-.1-.02,0-.05-.02-.09-.03-.27-.1-.41-.25-.41-.43,0-.1.05-.2.16-.29.09-.08.24-.17.44-.29l1.27-.66c.08-.04.14-.07.19-.08.06-.02.11-.03.16-.03.14,0,.21.07.24.13.04.07.06.17.06.32v6.72c0,.23.02.33.04.38.03.06.08.13.17.19.03.02.08.05.13.08.23.14.34.3.34.48,0,.11-.04.2-.11.28-.07.07-.16.12-.27.15-.29.09-.61.16-.94.21-.33.06-.59.08-.78.08ZM19.62,7.99v.21c.01.45.06.59.09.64.01.02.06.1.24.1s.43-.03.75-.08c.32-.05.63-.12.91-.21.08-.02.14-.06.18-.1.04-.04.05-.08.05-.14,0-.11-.08-.21-.24-.31-.06-.04-.11-.07-.15-.09-.12-.08-.2-.17-.24-.27-.04-.09-.06-.24-.06-.46V.57c0-.15-.02-.21-.03-.22,0,0-.02-.03-.07-.03-.03,0-.06,0-.1.02-.04.01-.1.04-.16.07l-1.27.66c-.19.1-.33.19-.4.26-.04.04-.09.09-.09.14,0,.09.09.18.28.25.04.02.08.03.1.04.11.05.18.11.22.2.04.08.06.19.06.35v1.47l-.16-.1c-.22-.15-.44-.26-.65-.32-.22-.07-.45-.1-.7-.1-.43,0-.84.11-1.23.33-.39.22-.73.53-1.01.93-.19.27-.33.56-.43.86-.09.3-.14.62-.14.95,0,.76.22,1.38.66,1.87.43.48,1,.73,1.67.73.3,0,.6-.06.89-.19.29-.12.59-.32.89-.58l.16-.14ZM18.55,7.79c-.47,0-.88-.22-1.21-.65-.32-.43-.49-.95-.49-1.57,0-.51.14-.93.42-1.26.28-.34.64-.51,1.07-.51.47,0,.83.2,1.06.6.22.38.34.96.34,1.71,0,.51-.1.92-.3,1.22-.21.31-.5.46-.87.46ZM18.33,4c-.37,0-.67.14-.91.44-.25.29-.37.68-.37,1.13,0,.57.15,1.05.45,1.45.3.39.64.58,1.05.58.3,0,.54-.12.71-.38.18-.26.27-.63.27-1.1,0-.72-.1-1.26-.31-1.61-.2-.34-.49-.5-.89-.5Z"/>
  </g>
  <g>
    <path class="cls-1" d="M30.87,3.13c.06-.04.12-.07.17-.08s.1-.02.14-.02c.08,0,.13.03.17.09s.05.16.05.3v1.03c.36-.48.69-.83.99-1.04s.63-.32.97-.32c.25,0,.44.03.58.09s.2.15.2.26c0,.06-.06.26-.17.58-.1.28-.18.51-.24.7-.02.05-.04.12-.06.22-.11.34-.22.52-.35.52-.05,0-.09-.02-.13-.05s-.1-.12-.18-.25c-.12-.18-.23-.31-.32-.37s-.2-.09-.32-.09c-.31,0-.54.11-.71.33s-.24.54-.24.96v1.41c0,.15.02.27.06.36s.11.17.2.23c.04.03.09.06.15.1.2.12.29.25.29.39,0,.12-.04.22-.12.29s-.19.11-.33.11h-2.26c-.14,0-.26-.04-.35-.11s-.13-.17-.13-.3c0-.15.11-.29.32-.4.07-.04.13-.08.16-.1.1-.07.17-.15.22-.24s.06-.22.06-.38v-2.15c0-.14-.02-.24-.05-.29s-.11-.1-.22-.13c-.02,0-.03-.01-.05-.02-.25-.09-.38-.21-.38-.35,0-.07.03-.13.1-.2s.22-.17.46-.32l1.29-.77Z"/>
    <path class="cls-2" d="M31.67,8.99h-2.26c-.17,0-.31-.04-.41-.13-.11-.09-.17-.22-.17-.38,0-.19.13-.36.37-.49.07-.04.12-.07.16-.09.09-.06.15-.12.18-.2.04-.08.06-.2.06-.34v-2.15c0-.17-.03-.23-.03-.24,0-.01-.04-.05-.17-.09-.02,0-.03-.01-.04-.02-.3-.11-.45-.26-.45-.44,0-.09.04-.19.13-.27.07-.07.23-.18.48-.33l1.29-.77c.07-.04.13-.07.19-.09.06-.02.12-.03.17-.03.15,0,.22.08.25.14.04.07.06.19.06.35v.74c.29-.37.57-.65.83-.83.32-.22.67-.33,1.02-.33.27,0,.47.03.62.1.21.1.26.25.26.35,0,.05-.02.17-.18.61-.1.28-.18.51-.24.7-.01.05-.04.12-.06.22-.08.25-.21.59-.45.59-.07,0-.14-.03-.2-.08-.03-.03-.09-.08-.2-.27-.14-.21-.24-.3-.29-.33-.07-.05-.16-.07-.26-.07-.28,0-.48.09-.63.29-.15.2-.22.5-.22.9v1.41c0,.14.02.25.05.32.03.07.09.14.17.19.04.03.08.06.15.1.23.14.34.3.34.48,0,.15-.05.27-.15.36-.1.09-.23.13-.39.13ZM31.18,3.13s-.07,0-.11.02c-.04.01-.09.04-.15.07h0s-1.29.77-1.29.77c-.29.17-.4.26-.44.3-.05.05-.07.09-.07.13,0,.11.17.2.31.25.01,0,.03.01.06.02.12.04.21.1.26.17.05.07.07.18.07.35v2.15c0,.17-.02.31-.07.42-.05.11-.14.21-.25.29-.04.02-.09.06-.17.1-.18.1-.27.21-.27.32,0,.09.03.17.1.22.07.06.16.09.28.09h2.26c.11,0,.2-.03.26-.08.06-.05.09-.12.09-.22,0-.11-.08-.21-.24-.31-.07-.04-.12-.08-.16-.11-.1-.07-.18-.17-.23-.27-.05-.1-.07-.24-.07-.41v-1.41c0-.44.09-.78.26-1.01.18-.24.45-.37.79-.37.14,0,.27.04.37.11.1.07.22.2.35.39.1.16.14.21.16.23.03.03.05.03.07.03.02,0,.13-.02.26-.45.03-.1.05-.17.06-.22.06-.19.14-.42.24-.7.15-.44.16-.53.16-.55,0-.05-.01-.11-.14-.17-.12-.06-.3-.08-.54-.08-.32,0-.62.1-.91.3-.29.2-.62.54-.97,1.01l-.18.24v-1.33c0-.17-.02-.23-.04-.26-.01-.02-.03-.04-.08-.04Z"/>
  </g>
  <g>
    <path class="cls-1" d="M14.36,8.31c-.38.24-.75.42-1.12.54s-.75.18-1.14.18c-.61,0-1.1-.16-1.47-.47s-.57-.71-.57-1.19c0-.63.27-1.13.8-1.49s1.26-.55,2.19-.55c.11,0,.2,0,.26,0s.12,0,.16,0c-.12-.45-.26-.76-.44-.93s-.44-.25-.78-.25c-.29,0-.59.1-.9.29s-.5.29-.57.29c-.08,0-.15-.03-.2-.08s-.07-.13-.07-.22c0-.3.24-.6.72-.89s1.02-.44,1.64-.44,1.09.16,1.45.47.65.84.88,1.58l.59,1.86c.1.32.21.56.32.7s.26.22.42.22c.08,0,.16-.03.23-.09.03-.02.04-.03.05-.03.04,0,.08.04.11.11s.05.16.05.27c0,.23-.11.42-.33.56s-.52.21-.89.21c-.29,0-.55-.05-.79-.16s-.44-.28-.62-.5ZM13.8,6.42c-.04-.12-.11-.21-.22-.27s-.26-.08-.45-.08c-.36,0-.65.09-.87.28s-.33.43-.33.73c0,.28.1.51.3.69s.45.26.77.26.57-.06.76-.19.28-.29.28-.5c0-.04,0-.08-.01-.13s-.02-.1-.04-.18l-.18-.62Z"/>
    <path class="cls-2" d="M12.09,9.13c-.63,0-1.14-.16-1.54-.49-.4-.33-.6-.76-.6-1.27,0-.66.28-1.19.84-1.57.55-.38,1.3-.57,2.25-.57.11,0,.2,0,.27,0,.01,0,.02,0,.03,0-.11-.36-.23-.62-.38-.76-.16-.15-.4-.22-.71-.22-.27,0-.55.09-.85.28-.43.27-.56.31-.62.31-.11,0-.2-.04-.27-.12-.07-.07-.1-.17-.1-.28,0-.34.25-.66.77-.98.49-.3,1.06-.45,1.69-.45s1.14.17,1.52.5c.37.33.68.87.91,1.62l.59,1.86c.09.31.2.54.3.67.1.12.21.18.34.18.06,0,.12-.02.17-.07.05-.03.08-.05.11-.05.09,0,.15.06.21.17.04.09.06.19.06.31,0,.27-.13.49-.38.64-.24.15-.55.22-.95.22-.31,0-.58-.06-.83-.17-.22-.1-.42-.26-.59-.46-.36.22-.72.39-1.07.51-.38.12-.77.18-1.17.18ZM13.04,5.43c-.9,0-1.62.18-2.13.53-.51.35-.76.81-.76,1.41,0,.46.17.82.53,1.12.36.29.83.44,1.41.44.38,0,.75-.06,1.11-.17.36-.12.73-.29,1.1-.53l.08-.05.06.07c.17.21.36.37.58.48.22.1.47.16.74.16.35,0,.64-.07.84-.19.19-.12.28-.28.28-.47,0-.09-.01-.17-.04-.23,0-.02-.02-.03-.02-.04-.09.07-.19.1-.29.1-.19,0-.36-.08-.5-.25-.13-.16-.24-.4-.34-.74l-.59-1.86c-.22-.72-.51-1.23-.86-1.53-.34-.3-.81-.45-1.39-.45s-1.12.14-1.59.42c-.44.27-.67.54-.67.81,0,.07.02.11.05.15.03.03.07.05.12.05.01,0,.1-.02.52-.28.33-.2.65-.31.96-.31.37,0,.65.09.85.28.19.18.35.5.47.98l.03.12h-.13s-.1,0-.17,0c-.06,0-.15,0-.26,0ZM12.99,8.13c-.34,0-.62-.1-.84-.29-.22-.19-.33-.45-.33-.76,0-.33.12-.61.36-.81.24-.2.55-.3.94-.3.21,0,.38.03.5.09.13.07.22.18.27.33h0s.18.62.18.62c.02.08.03.15.04.19,0,.05.01.09.02.13,0,.25-.11.45-.33.59-.2.14-.48.2-.81.2ZM13.12,6.17c-.34,0-.61.08-.81.25-.2.17-.29.38-.29.66,0,.25.09.45.26.61.18.16.41.24.7.24s.53-.06.7-.17c.16-.11.24-.24.24-.42,0-.03,0-.07-.01-.11,0-.04-.02-.1-.04-.17l-.17-.61c-.03-.1-.09-.17-.17-.21-.09-.05-.23-.07-.41-.07Z"/>
  </g>
  <g>
    <path class="cls-1" d="M24.11,7.33V1.92c0-.15-.02-.27-.06-.35s-.11-.14-.2-.19c-.04-.02-.09-.04-.17-.07-.27-.11-.41-.25-.41-.45,0-.18.06-.3.17-.38s.3-.12.55-.12h4.76c.23,0,.45-.05.65-.16s.34-.16.42-.16c.1,0,.2.04.31.13s.28.32.52.68c.29.43.51.79.67,1.08s.24.49.24.59c0,.08-.03.15-.1.21s-.15.09-.24.09c-.11,0-.35-.15-.71-.44-.16-.13-.29-.23-.39-.3-.29-.22-.58-.37-.89-.47s-.79-.14-1.44-.14-1.08.05-1.23.14-.24.32-.24.68v.56c0,.21.04.34.11.41s.23.1.47.1c.2,0,.37,0,.5-.03s.24-.05.33-.09c.07-.03.18-.1.31-.21s.24-.16.32-.16.16.03.22.08.14.16.22.32l.8,1.44c.04.08.06.15.08.2s.03.11.03.16c0,.1-.04.19-.11.25s-.16.1-.26.1c-.14,0-.33-.11-.58-.32-.13-.12-.24-.21-.32-.26-.23-.16-.45-.27-.66-.33s-.48-.09-.8-.09c-.29,0-.47.05-.56.15s-.13.33-.13.69v2.05c0,.15.02.26.06.35s.11.15.21.19c.04.02.09.04.17.07.27.11.4.25.4.45,0,.17-.06.3-.17.38s-.3.12-.55.12h-2.38c-.25,0-.43-.04-.55-.12s-.17-.21-.17-.38c0-.19.14-.34.41-.45.08-.03.13-.05.17-.07.09-.05.16-.11.2-.19s.06-.2.06-.35Z"/>
    <path class="cls-2" d="M26.37,8.99h-2.38c-.27,0-.47-.05-.61-.14-.14-.1-.21-.26-.21-.46,0-.24.16-.42.47-.54.08-.03.13-.05.17-.07.07-.04.12-.08.15-.14.03-.07.05-.17.05-.3V1.92c0-.14-.02-.24-.05-.3-.03-.06-.08-.11-.16-.15-.03-.01-.09-.04-.16-.07-.31-.12-.47-.3-.47-.54,0-.21.07-.37.22-.47.13-.09.33-.14.6-.14h4.76c.21,0,.42-.05.61-.14.29-.15.41-.17.46-.17.13,0,.25.05.37.16.11.1.29.33.54.7.29.43.51.8.67,1.09.22.41.25.56.25.63,0,.11-.04.21-.13.29-.08.08-.19.11-.31.11-.1,0-.27-.05-.78-.46-.16-.13-.29-.23-.38-.3-.27-.21-.56-.36-.86-.45-.3-.09-.77-.13-1.42-.13-.8,0-1.08.07-1.18.13-.16.09-.19.37-.19.59v.56c0,.23.05.31.08.34.02.02.11.08.4.08.2,0,.36,0,.48-.03.12-.02.22-.05.3-.08.05-.02.13-.07.29-.2.3-.25.5-.22.67-.08.07.06.15.18.24.35l.8,1.43c.04.09.07.16.09.22.02.07.03.13.03.19,0,.13-.05.24-.14.33-.09.09-.2.13-.33.13-.16,0-.37-.11-.65-.35-.13-.12-.24-.21-.31-.26-.22-.15-.43-.26-.63-.32-.21-.06-.47-.09-.77-.09s-.44.06-.49.12c-.04.04-.11.19-.11.63v2.05c0,.13.02.23.05.3.03.06.09.11.17.15.03.01.09.04.16.07.31.12.46.3.46.54,0,.21-.07.36-.21.46-.13.1-.33.14-.61.14ZM23.99.46c-.23,0-.39.04-.49.1-.09.06-.13.16-.13.3,0,.05,0,.22.35.35.08.03.14.06.17.07.12.06.2.14.25.24.05.1.07.22.07.39v5.41c0,.17-.02.3-.07.39-.05.1-.13.18-.25.23-.04.02-.1.04-.18.07-.35.13-.35.3-.35.35,0,.14.04.24.13.3.1.07.26.1.49.1h2.38c.23,0,.39-.04.49-.1.09-.06.13-.16.13-.3,0-.05,0-.22-.34-.35-.08-.03-.14-.06-.17-.07-.12-.06-.21-.14-.26-.24-.05-.1-.08-.23-.08-.39v-2.05c0-.4.05-.64.16-.76.11-.12.32-.18.64-.18s.61.03.83.1c.22.06.46.18.69.34.09.06.2.15.33.27.28.25.44.3.51.3s.14-.02.19-.07c.05-.05.08-.11.08-.18,0-.04,0-.08-.02-.13-.02-.05-.04-.12-.07-.19l-.79-1.43c-.1-.18-.16-.26-.2-.29-.05-.04-.1-.06-.15-.06-.03,0-.11.02-.26.14-.14.12-.25.19-.33.22-.09.05-.21.08-.35.1-.13.02-.31.03-.51.03-.27,0-.44-.04-.53-.13s-.14-.25-.14-.49v-.56c0-.4.09-.65.29-.76.11-.07.37-.16,1.29-.16.67,0,1.15.05,1.47.14.32.09.63.26.92.48.09.07.22.17.39.31.48.39.62.42.65.42.07,0,.13-.02.18-.06.04-.04.06-.08.06-.14,0-.04-.02-.16-.23-.54-.16-.29-.38-.65-.66-1.08-.29-.44-.43-.6-.5-.66-.08-.07-.17-.11-.24-.11-.03,0-.12.01-.37.14-.22.11-.45.17-.7.17h-4.76Z"/>
  </g>
</svg>