<svg xmlns="http://www.w3.org/2000/svg" viewBox="0 0 165 35"><defs><style>.cls-1{fill:#529d96;}</style></defs><g id="Layer_2" data-name="Layer 2"><path class="cls-1" d="M6.74,29.18c-1.1-5,.73-9.42,1.69-14.22.91-4.54.89-9.62,7-9.72a16.23,16.23,0,0,1,3.4.3C21.33,6,22,7.3,21,9.43c-.28,1.8-.59,3.6-.89,5.4L18,27.43l2.2-.9c-3.75-2.3-8.12-1.53-12.06-.08-2.26.83-5.63,2.42-4.26,5.43,1.6,3.48,7.32,2.74,10.26,2.7,2.35,0,6.81.38,6.62-3.09a1.49,1.49,0,0,0-.74-1.3c-2.68-1.24-5.67-1.45-8.59-1.62-1.93-.1-1.92,2.9,0,3a29.89,29.89,0,0,1,4.71.51l.42-.54c-1.74-.32-3.91.6-5.59.08-2.68-.85-2.43-2.26,0-2.92,2.69-.74,5.21-1.12,7.72.42a1.51,1.51,0,0,0,2.2-.9L23,15.63c.43-2.65,1.62-6,1.34-8.61C23.81,2.2,17.82,2,13.94,2.31c-4.53.41-7.13,2.56-7.82,7C5.09,16,2.35,23.2,3.84,30c.42,1.88,3.31,1.08,2.9-.8Z"/><path class="cls-1" d="M26.64,7.42c27.55-1.36,55.16.58,82.72.16,11.57-.18,23.23,1.67,34.68-.82,3.66-.79,7-2,10.79-2.26.93-.06,2.81-.44,3.68-.08,2.56,1,1.75,3.56,1.62,5.63a112.19,112.19,0,0,1-1.29,11.28c-.36,2.22-.13,4.19-2.56,5.14l-2.37.33c-3.14-1.06-3.17-1.48-.1-1.28.67,1.79,3.57,1,2.89-.8-2.38-6.35-14.49,1.34-6.25,4.66,2.73,1.1,8.53.63,10.18-2.15,1.38-2.32,1.33-6.36,1.68-9a111.13,111.13,0,0,0,1-12.09c.13-5.84-4.44-5-9.41-4.56A73.09,73.09,0,0,0,144,3.71a71.74,71.74,0,0,1-11.53,1.37c-7.63.54-15.41-.62-23.09-.5q-12.35.2-24.7,0c-19.34-.25-38.68-1.14-58-.19-1.92.09-1.93,3.09,0,3Z"/><path class="cls-1" d="M20.45,29c23.29.19,46.6-2.54,69.87-.83,19.09,1.4,38.1,5.17,56.84-1,1.83-.6,1.05-3.49-.79-2.89-19.11,6.25-38.49,1.94-57.93.72-22.66-1.42-45.33,1.14-68,1a1.5,1.5,0,0,0,0,3Z"/></g></svg>