<svg xmlns="http://www.w3.org/2000/svg" viewBox="0 0 125 25"><defs><style>.cls-1{fill:none;stroke:#529d96;stroke-miterlimit:10;stroke-width:4px;}</style></defs><g id="Layer_2" data-name="Layer 2"><path class="cls-1" d="M7.88,3.28C2.13,7,.42,12.61,3.24,16.56s10.23,6.16,13.64,4.58c2.19-1,1.36-2.95,4.06-8.06C23.1,9,24.19,6.92,26.16,6.33c5.12-1.54,10.26,7.09,24.37,11.76.71.23,16.19,5.24,20.88,1.09,3.68-3.26-.91-10.71-1.16-11.11a18,18,0,0,0-4.93-5.22C65,3,78.77,18.5,82.44,17.22c1.92-.68-.72-5.34,2.9-7.84,2.15-1.49,5.74-1.68,8.41-1.09,7.59,1.68,7.15,9.58,13,11.1,3.09.8,8.08-.1,16.54-6.75"/></g></svg>