<svg width="300" height="50" viewBox="0 0 300 50" fill="none" xmlns="http://www.w3.org/2000/svg">
<path d="M38.9998 9C37.1665 12.8333 35.1998 21.7 41.9998 26.5C50.4998 32.5 53.5 25.5 60 30.5C66.5 35.5 62.5 37 64.5 40.5" stroke="#529D96" stroke-width="4"/>
<path d="M151.5 9C152.667 9.83333 154.3 12.6 151.5 17C148 22.5 142 20 140.5 23.5C139 27 136 33 136.5 35.5" stroke="#529D96" stroke-width="4"/>
<path d="M229.5 8.5C233.5 8.83333 242.4 11.1 246 17.5C250.5 25.5 246.5 28 241 29.5C235.5 31 225.5 24.5 217.5 27C211.1 29 205.833 33.5 204 35.5" stroke="#529D96" stroke-width="4"/>
<path d="M51 35L65.5 42L69 29.5" stroke="#529D96" stroke-width="4"/>
<path d="M132 22.5L134.5 39.5L147.5 28" stroke="#529D96" stroke-width="4"/>
<path d="M206.5 22L201.5 36.5H222.5" stroke="#529D96" stroke-width="4"/>
</svg>
