<svg width="300" height="50" viewBox="0 0 300 50" fill="none" xmlns="http://www.w3.org/2000/svg">
<path d="M279 2.5C281.667 8.16667 284.5 20.1 274.5 22.5C262 25.5 247 22.5 236.5 22.5C226 22.5 206 22.5 194 30C182 37.5 181 38.5 173.5 39.5" stroke="#529D96" stroke-width="4"/>
<path d="M47.5 30L36 40.5L51.5 45.5" stroke="#529D96" stroke-width="4"/>
<path d="M110.5 29.5L105 43.5H123.5" stroke="#529D96" stroke-width="4"/>
<path d="M175.5 24L171 42H189.5" stroke="#529D96" stroke-width="4"/>
<path d="M153 11C153.5 13 153 18.3 147 23.5C139.5 30 137 23.5 129.5 29C122 34.5 113 42 107.5 42" stroke="#529D96" stroke-width="4"/>
<path d="M67.9998 4.99997C67.3331 3.99997 64.5998 3.79997 58.9998 11C51.9998 20 52.9998 24.5 56.9998 27C60.9998 29.5 63.4996 34 58.9998 36.5C55.4 38.5 44.1667 39.6667 39 40" stroke="#529D96" stroke-width="4"/>
</svg>
