<svg xmlns="http://www.w3.org/2000/svg" viewBox="0 0 125 25"><defs><style>.cls-1{fill:none;stroke:#529d96;stroke-miterlimit:10;stroke-width:4px;}</style></defs><g id="Layer_2" data-name="Layer 2"><path class="cls-1" d="M1.91,14.5C8,8.26,15.12,1.43,16.46,2.47c1.77,1.38-9.41,14.21-6,18.59,5.19,6.76,43.16-8.89,53-16.67C63.65,4.2,65.66,2.6,66.15,3c1.37,1.16-11,15.65-9.06,17.77C59.68,23.56,84.33,2.38,88.12,6c2.34,2.27-4.41,13.11-3.85,13.39S91.74,7.09,93.06,7.67s-3.57,11.58-1.38,12.85c1.78,1,7.38-4.77,17.85-12.3a11.68,11.68,0,0,1,3-1.65c4.37-1.57,8.79-.14,11.53,1.1"/></g></svg>