<svg xmlns="http://www.w3.org/2000/svg" viewBox="0 0 125 25"><defs><style>.cls-1{fill:none;stroke:#529d96;stroke-miterlimit:10;stroke-width:4px;}</style></defs><g id="Layer_2" data-name="Layer 2"><path class="cls-1" d="M1,10.25C18,3.16,23.88,1.56,24.58,2.41,26,4.12,4.78,14.34,7.28,19c1.74,3.26,15.23,3.91,21-.9,3.68-3.07,1.8-6.36,6.24-10.54,4.08-3.83,10.78-5.88,12.2-4.7C49.53,5.2,32.25,21,33.65,21.91,35.31,23,59.24,1.19,64,3.75c3.58,1.93-6.64,16.1-2.27,18.61C66.78,25.25,83.18,8,98.6,11.6c4.48,1.06,6.82,3.4,11.35,2.69,7.41-1.17,10.64-8.94,11.91-8.52.76.25.4,3.32-4.82,16.14"/></g></svg>